<?xml version="1.0" encoding="UTF-8"?>
<svg width="32" height="32" viewBox="0 0 32 32" fill="none" xmlns="http://www.w3.org/2000/svg">
    <!-- Background circle with gradient -->
    <defs>
        <linearGradient id="grad" x1="0%" y1="0%" x2="100%" y2="100%">
            <stop offset="0%" style="stop-color:#3498db;stop-opacity:1" />
            <stop offset="100%" style="stop-color:#2980b9;stop-opacity:1" />
        </linearGradient>
        <!-- Terminal window -->
        <filter id="shadow" x="-20%" y="-20%" width="140%" height="140%">
            <feDropShadow dx="0" dy="2" stdDeviation="1" flood-opacity="0.3"/>
        </filter>
    </defs>
    
    <!-- Main circle -->
    <circle cx="16" cy="16" r="15" fill="url(#grad)"/>
    
    <!-- Terminal window -->
    <rect x="8" y="8" width="16" height="16" rx="2" fill="white" fill-opacity="0.1" filter="url(#shadow)"/>
    
    <!-- Terminal prompt -->
    <path d="M10 13L12 15L10 17" stroke="white" stroke-width="1.5" stroke-linecap="round" stroke-linejoin="round"/>
    
    <!-- Trash can -->
    <path d="M14 11V9C14 8.44772 14.4477 8 15 8H17C17.5523 8 18 8.44772 18 9V11" stroke="white" stroke-width="1.5" stroke-linecap="round"/>
    <path d="M13 11H19" stroke="white" stroke-width="1.5" stroke-linecap="round"/>
    <path d="M15 11V19C15 19.5523 15.4477 20 16 20H16C16.5523 20 17 19.5523 17 19V11" stroke="white" stroke-width="1.5" stroke-linecap="round"/>
    <path d="M16 14V16" stroke="white" stroke-width="1.5" stroke-linecap="round"/>
</svg> 